<svg xmlns="http://www.w3.org/2000/svg" xmlns:xlink="http://www.w3.org/1999/xlink" width="256" height="256" viewBox="0 0 256 256"><defs><linearGradient id="flutterGradient" x1="0%" x2="100%" y1="0%" y2="100%"><stop offset="0%" style="stop-color:#02569b;stop-opacity:1"/><stop offset="50%" style="stop-color:#13b9fd;stop-opacity:1"/><stop offset="100%" style="stop-color:#54c5f8;stop-opacity:1"/></linearGradient><filter id="innerShadow" width="140%" height="140%" x="-20%" y="-20%"><feGaussianBlur in="SourceAlpha" result="blur" stdDeviation="3"/><feOffset dx="2" dy="2" result="offsetblur"/><feComposite in2="SourceAlpha" k2="-1" k3="1" operator="arithmetic" result="inverse"/><feFlood flood-color="#000" flood-opacity=".2" result="color"/><feComposite in2="inverse" operator="in" result="shadow"/><feComposite in="SourceGraphic" in2="shadow"/></filter><path id="flutterLogo" d="M959.4 500 679.8 779.7l279.6 279.7H639.9L360.2 779.7 639.9 500zM639.9 20.7 120.6 540l159.8 159.8 679-679.1z"/></defs><rect width="224" height="224" x="16" y="16" fill="url(#flutterGradient)" rx="48" ry="48"/><g opacity=".15" transform="matrix(.18 0 0 .18 40 50)"><clipPath id="logoClip"><use xlink:href="#flutterLogo"/></clipPath><g clip-path="url(#logoClip)"><path fill="#fff" d="M360.3 779.7 520 939.5 959.4 500H639.9z"/></g><path fill="#fff" d="M639.9 20.7h319.5l-679 679.1L120.6 540z" clip-path="url(#logoClip)"/><path fill="#fff" d="m520 939.5 119.9 119.8h319.5L679.8 779.7z" clip-path="url(#logoClip)"/><g clip-path="url(#logoClip)"><path fill="#fff" d="m360.28 779.65 159.8-159.81 159.82 159.8-159.81 159.81z"/></g></g><text x="128" y="115" fill="#fff" filter="url(#innerShadow)" font-family="'Segoe UI', Arial, sans-serif" font-size="52" font-weight="bold" text-anchor="middle">MVVM</text><text x="128" y="170" fill="#fff" font-family="'Courier New', monospace" font-size="32" font-weight="bold" opacity=".95" text-anchor="middle">flutter_it</text><text x="50" y="170" fill="#fff" font-family="'Courier New', monospace" font-size="28" font-weight="bold" opacity=".25" text-anchor="middle">&lt;</text><text x="206" y="170" fill="#fff" font-family="'Courier New', monospace" font-size="28" font-weight="bold" opacity=".25" text-anchor="middle">/&gt;</text><rect width="100" height="3" x="78" y="185" fill="#fff" opacity=".5" rx="1.5"/></svg>